<?xml version="1.0" encoding="UTF-8"?>
<svg version="1.1" xmlns="http://www.w3.org/2000/svg" width="2000" height="2000">
<path d="M0 0 C660 0 1320 0 2000 0 C2000 660 2000 1320 2000 2000 C1340 2000 680 2000 0 2000 C0 1340 0 680 0 0 Z " fill="#000000" transform="translate(0,0)"/>
<path d="M0 0 C6.69703252 1.52192116 13.42935286 2.74457264 20.19140625 3.9375 C42.44660037 7.94707853 64.24432722 13.54762488 85.75390625 20.5 C86.79691895 20.83225586 87.83993164 21.16451172 88.91455078 21.50683594 C116.85489523 30.43077986 143.63173041 41.21111353 169.75390625 54.5 C170.75147949 55.00644043 171.74905273 55.51288086 172.77685547 56.03466797 C192.20334245 66.00269052 210.58449047 78.01150933 227.75390625 91.5 C228.89783378 92.37839095 230.04240383 93.25594557 231.1875 94.1328125 C237.73505894 99.17613079 244.01112954 104.37651046 250.05859375 110.015625 C252.17804067 111.96920216 254.32411314 113.85870625 256.5078125 115.73828125 C261.14080547 119.77799857 265.48241237 124.08145017 269.81640625 128.4375 C270.58017578 129.19740234 271.34394531 129.95730469 272.13085938 130.74023438 C276.87947437 135.49697361 281.38464743 140.39444901 285.75390625 145.5 C287.05714844 146.98113281 287.05714844 146.98113281 288.38671875 148.4921875 C304.99840415 167.70758534 318.87666906 189.08437728 330.75390625 211.5 C331.28129395 212.49483398 331.28129395 212.49483398 331.81933594 213.50976562 C343.45324588 235.6642927 352.04638502 258.55797813 358.07373047 282.8125 C358.64586104 285.07309344 359.251271 287.31803702 359.8828125 289.5625 C365.47985945 310.63373559 367.145769 333.01193094 367.06640625 354.75 C367.06394897 355.45495605 367.0614917 356.15991211 367.05895996 356.88623047 C367.01920157 363.21338863 366.85022461 369.2632721 365.75390625 375.5 C365.61028685 377.10090549 365.48994907 378.70409372 365.39453125 380.30859375 C364.43789592 394.41328559 362.12761827 407.78202994 358.75390625 421.5 C358.51051514 422.52649658 358.51051514 422.52649658 358.26220703 423.57373047 C348.81219846 463.34730244 330.66084973 503.09323802 306.04589844 535.77978516 C304.63442608 537.65908111 303.24454553 539.55331665 301.85546875 541.44921875 C292.97170952 553.51354767 283.41962269 564.81448675 273.23828125 575.796875 C271.19649526 578.01844089 269.21246342 580.26819018 267.25390625 582.5625 C260.96264388 589.80424085 254.0475955 596.56471036 246.74609375 602.78125 C245.35260034 603.98347961 243.98448735 605.21547441 242.63671875 606.46875 C203.27343094 643.04877504 151.87492189 667.97622015 102.75390625 688.5 C102.10780396 688.77072327 101.46170166 689.04144653 100.79602051 689.32037354 C62.84650139 705.20027167 23.86227153 718.4820089 -15.05859375 731.75 C-16.20476166 732.14214691 -17.35092957 732.53429382 -18.53182983 732.93832397 C-101.60350653 761.31242778 -101.60350653 761.31242778 -138.4375 744 C-158.35123868 733.84328795 -172.06286807 718.14314401 -179.22558594 697.04690552 C-182.17547043 687.53418627 -181.97400681 678.24136688 -181.74609375 668.375 C-181.72054811 666.30023463 -181.69701369 664.2254437 -181.67529297 662.15063477 C-181.58756266 655.26554855 -181.42394065 648.38327776 -181.24609375 641.5 C-181.21519653 640.27968079 -181.18429932 639.05936157 -181.15246582 637.80206299 C-180.73979563 621.76230657 -180.22272941 605.72687646 -179.66323853 589.69172668 C-179.35229584 580.75873975 -179.06905551 571.82524119 -178.80859375 562.890625 C-176.84651653 496.17103136 -174.1777441 429.45474334 -170.63292408 362.80045223 C-170.27891882 356.13618773 -169.92966632 349.47167752 -169.58105469 342.80712891 C-169.52122847 341.66341481 -169.46140224 340.51970072 -169.39976311 339.34132862 C-169.27470918 336.95049934 -169.14965774 334.55966994 -169.02460861 332.16884041 C-167.63015558 305.51790476 -166.22856418 278.8673492 -164.81310463 252.21752071 C-164.42412741 244.8852082 -164.03967969 237.55267174 -163.65817261 230.21996689 C-163.39783486 225.22477415 -163.13513997 220.22970682 -162.87207031 215.23465729 C-162.7494575 212.89657126 -162.62782306 210.55843366 -162.50732422 208.22023773 C-161.81088871 194.71678606 -160.98375716 181.23339856 -159.92808533 167.75278091 C-159.39960757 160.94181296 -159.00977525 154.13872535 -158.74609375 147.3125 C-158.39451048 138.62165 -157.74083504 129.98341232 -156.9765625 121.31958008 C-156.4321494 115.04816466 -156.01943739 108.78880195 -155.74609375 102.5 C-155.38277517 94.14787785 -154.7203441 85.84012021 -153.97216797 77.51416016 C-153.46322623 71.69085436 -153.1262475 65.89678297 -152.9543457 60.05419922 C-152.36907091 41.21899213 -146.8967926 24.13026367 -133.24609375 10.5 C-97.14070935 -19.26379765 -42.02258483 -9.59136173 0 0 Z " fill="#FEFEFE" transform="translate(873.24609375,554.5)"/>
<path d="M0 0 C15.08913316 12.83864674 25.9579092 31.54032642 28.25 51.38208008 C28.43426009 54.47340957 28.48710321 57.53589043 28.48046875 60.6328125 C28.47877686 61.84525635 28.47708496 63.0577002 28.4753418 64.30688477 C28.23959171 82.19935978 25.43929999 99.98448526 23.15534973 117.70140076 C21.67805678 129.22516492 20.40856024 140.76904339 19.16796875 152.3203125 C18.96794217 154.16203748 18.76783075 156.00375326 18.56762695 157.84545898 C17.63399675 166.48561985 16.75239092 175.12870741 15.94140625 183.78125 C14.82832799 195.63876572 13.57929722 207.48044061 12.29296875 219.3203125 C12.10521378 221.05072784 12.10521378 221.05072784 11.91366577 222.81610107 C9.7016583 243.11166193 7.2666143 263.37568306 4.73046875 283.6328125 C4.64591179 284.30971256 4.56135483 284.98661263 4.47423553 285.68402481 C-0.94088053 329.03164124 -0.94088053 329.03164124 -4.26025391 346.11962891 C-5.29171408 351.51769332 -6.17076286 356.94071365 -7.0625 362.36328125 C-11.39159719 388.58251204 -16.06069348 414.62137224 -22.08203125 440.5078125 C-22.2533255 441.24806671 -22.42461975 441.98832092 -22.60110474 442.75100708 C-23.13160324 445.04155576 -23.66481508 447.33145326 -24.19921875 449.62109375 C-24.44125786 450.6626059 -24.44125786 450.6626059 -24.68818665 451.72515869 C-25.93036735 457.01163279 -27.38330628 462.21531166 -28.921875 467.421875 C-29.8175542 470.50500359 -30.61950527 473.60413465 -31.3984375 476.71875 C-42.56418857 520.80943207 -59.23199402 564.13210786 -80.06640625 604.52978516 C-81.14711263 606.63456475 -82.20789528 608.74882535 -83.26953125 610.86328125 C-92.63710156 629.30415265 -103.64961786 646.97490022 -116.08203125 663.5078125 C-116.56849121 664.16265625 -117.05495117 664.8175 -117.55615234 665.4921875 C-132.63603768 685.76766358 -149.40141253 705.88310351 -168.625 722.38671875 C-170.52054794 724.02309797 -172.39300925 725.67684076 -174.2578125 727.34765625 C-189.69504044 741.08832177 -206.37546543 752.87752657 -224.08203125 763.5078125 C-225.32291504 764.25393799 -225.32291504 764.25393799 -226.58886719 765.01513672 C-236.574241 770.97229822 -246.72792656 776.46689597 -257.20703125 781.5078125 C-258.13032227 781.95261963 -259.05361328 782.39742676 -260.00488281 782.85571289 C-277.86765913 791.27374739 -298.43293617 796.404057 -317.984375 790.67578125 C-328.79447928 786.59984029 -338.51622442 781.33849412 -347.08203125 773.5078125 C-347.69046875 772.97929688 -348.29890625 772.45078125 -348.92578125 771.90625 C-366.07663241 756.08069189 -375.29288676 731.01849362 -376.3046875 708.21484375 C-376.92682323 686.08562069 -371.6686753 667.11033187 -358.08203125 649.5078125 C-357.52902344 648.77046875 -356.97601562 648.033125 -356.40625 647.2734375 C-347.02451087 635.63356265 -334.23700041 629.30685046 -321.18017578 622.68774414 C-306.71211581 615.34169821 -294.17077511 607.31441686 -282.08203125 596.5078125 C-280.62421429 595.25721032 -279.16595628 594.00712186 -277.70703125 592.7578125 C-253.48660367 571.3184361 -234.51041835 540.64266479 -223.08203125 510.5078125 C-223.84 510.79914062 -224.59796875 511.09046875 -225.37890625 511.390625 C-237.55484443 515.77065706 -250.08392521 518.37443535 -262.765625 520.85742188 C-264.75503453 521.24757109 -266.74272781 521.64688083 -268.7265625 522.06445312 C-294.16252806 527.35833982 -324.73201492 527.07986108 -350.08203125 521.5078125 C-351.69247314 521.17716797 -351.69247314 521.17716797 -353.33544922 520.83984375 C-371.07313398 517.15636904 -387.52299127 511.81712274 -404.08203125 504.5078125 C-404.89091797 504.16105469 -405.69980469 503.81429687 -406.53320312 503.45703125 C-438.10249273 489.90033033 -466.65469854 465.92835338 -487.08203125 438.5078125 C-487.73002686 437.6430127 -487.73002686 437.6430127 -488.39111328 436.76074219 C-542.36883661 364.31318779 -549.38854563 267.34166374 -536.53662109 172.15722656 C-534.56925118 158.77976332 -532.06416303 145.62556584 -528.81005859 132.49511719 C-528.08504093 129.52016208 -527.41462773 126.53756387 -526.7578125 123.546875 C-504.67669369 24.55561977 -504.67669369 24.55561977 -468.09082031 1.18652344 C-449.57539252 -10.31500021 -427.61445739 -12.87600276 -406.34814453 -8.10424805 C-392.01078619 -4.33576856 -378.51213628 2.02661939 -367.08203125 11.5078125 C-366.17066406 12.24515625 -365.25929688 12.9825 -364.3203125 13.7421875 C-349.62535849 26.2851608 -338.11603605 44.66408309 -336.25634766 64.15576172 C-334.83743615 83.30113068 -338.31444205 98.68315409 -345.24804688 116.36132812 C-362.79792403 161.53068407 -374.3601809 208.17888316 -374.51953125 256.8203125 C-374.52579529 257.71348175 -374.53205933 258.606651 -374.53851318 259.52688599 C-374.60782428 275.10266847 -373.67035829 291.09862255 -368.33203125 305.8828125 C-368.07599121 306.61628906 -367.81995117 307.34976562 -367.55615234 308.10546875 C-360.3284804 328.07632359 -348.16499237 342.31896298 -329.08203125 351.5078125 C-312.21006163 358.85594526 -291.75855144 357.21255004 -274.94775391 350.67822266 C-244.57851792 338.53184494 -217.41514049 316.83701759 -197.21484375 291.1953125 C-194.95719859 288.35051421 -192.58572545 285.62688606 -190.20703125 282.8828125 C-184.61506594 276.17940066 -179.93997228 268.98774185 -175.36621094 261.5625 C-174.18531251 259.67306252 -172.96011142 257.82390286 -171.71484375 255.9765625 C-167.77205579 249.7951953 -165.56601769 244.57325363 -164.578125 237.3046875 C-164.45928452 236.49514618 -164.34044403 235.68560486 -164.21800232 234.85153198 C-162.66875987 224.04969675 -161.39079162 213.20859462 -160.09295654 202.37432861 C-159.33037594 196.01160182 -158.55673545 189.65022784 -157.78125 183.2890625 C-157.63137634 182.0594278 -157.48150269 180.82979309 -157.3270874 179.56289673 C-156.28696225 171.07316989 -155.172757 162.59933669 -153.95703125 154.1328125 C-152.49947026 143.9206702 -151.25490233 133.69291751 -150.07818604 123.44543457 C-149.76948473 120.75740742 -149.45899899 118.06959228 -149.14794922 115.38183594 C-149.04228638 114.46845459 -148.93662354 113.55507324 -148.82775879 112.61401367 C-148.60669123 110.70336423 -148.38558023 108.79271981 -148.16442871 106.88208008 C-147.52434901 101.34794966 -146.88826541 95.813389 -146.25634766 90.27832031 C-145.52710562 83.90482688 -144.78103044 77.53345476 -144.02603149 71.16296387 C-143.73369869 68.6740863 -143.44659403 66.1845882 -143.16513062 63.69445801 C-140.067855 36.3444061 -134.68985546 12.45172955 -112.890625 -6.328125 C-79.2588078 -32.2419313 -31.68618024 -25.62203168 0 0 Z " fill="#FEFEFE" transform="translate(1896.08203125,546.4921875)"/>
<path d="M0 0 C3.36856871 0.00417532 6.7371228 0.00619377 10.10569292 0.00693583 C55.3995972 0.01836849 100.5489308 0.67822135 145.71741104 4.33307648 C147.16448692 4.44937912 147.16448692 4.44937912 148.64079666 4.56803131 C170.43117919 6.41603582 190.93181093 11.37062536 207.61975479 26.31745148 C208.45377823 27.05737335 209.28780167 27.79729523 210.14709854 28.55963898 C226.55946439 43.98574555 236.89226611 66.87886954 237.92834854 89.37604523 C238.04575582 94.36894421 237.90599529 99.33244696 237.61975479 104.31745148 C237.58108292 105.00468292 237.54241104 105.69191437 237.50256729 106.39997101 C236.11724782 126.76722312 226.79228055 144.08202989 212.61975479 158.31745148 C212.05772354 158.91428741 211.49569229 159.51112335 210.91662979 160.12604523 C197.08202335 173.56017622 176.25439516 176.78257097 157.90881729 176.51667023 C149.33138476 176.29967749 140.77518156 175.68378358 132.21643448 175.10187531 C121.10388225 174.35574352 110.00005044 173.93802513 98.86658096 173.65949249 C92.5482524 173.49616268 86.26319015 173.24801153 79.95569229 172.83551788 C69.87956089 172.21466813 59.80119056 171.99389164 49.70959854 171.78229523 C47.76090784 171.73915477 45.81222322 171.69573833 43.86354446 171.65206146 C38.79542011 171.53919234 33.72722317 171.43001018 28.6590004 171.3216629 C23.46292558 171.20990726 18.26693026 171.09457206 13.07092667 170.97956085 C2.92060967 170.75540447 -7.22978785 170.53515295 -17.38024521 170.31745148 C-17.43802139 171.08789795 -17.49579758 171.85834442 -17.55532455 172.65213776 C-18.02834358 178.67611066 -18.61606115 184.61791378 -19.62243271 190.57526398 C-19.74654022 191.33370605 -19.87064774 192.09214813 -19.99851608 192.8735733 C-20.41279595 195.39732037 -20.83393964 197.91986851 -21.25524521 200.44245148 C-21.55597191 202.26400792 -21.8563338 204.08562463 -22.15636826 205.90729523 C-23.02228088 211.15459824 -23.89520664 216.40071646 -24.76922226 221.64667511 C-25.43250757 225.6314224 -26.09386836 229.61648583 -26.75475693 233.60163116 C-28.23180036 242.50728504 -29.71145495 251.41250304 -31.19274521 260.31745148 C-31.31428719 261.04828194 -31.43582916 261.7791124 -31.56105423 262.53208923 C-32.27022602 266.79571446 -32.98039667 271.05917131 -33.69195366 275.32239914 C-34.01360808 277.25050441 -34.33450587 279.17873586 -34.65537643 281.10697174 C-35.83868318 288.18836873 -37.07207834 295.2580214 -38.38024521 302.31745148 C-37.71118149 302.29555252 -37.04211777 302.27365356 -36.35277939 302.251091 C-18.11867917 301.69102786 -0.05935202 302.78560477 18.11975479 304.12995148 C19.27026321 304.21281403 20.42077164 304.29567657 21.60614395 304.38105011 C58.68579609 307.08070147 93.10888069 311.42980821 119.1143837 340.52545929 C133.35292837 357.47500809 138.23410384 378.807981 136.91272354 400.46393585 C134.93122229 419.76375804 125.70858842 438.20427434 112.61975479 452.31745148 C111.88885635 453.11667023 111.15795792 453.91588898 110.40491104 454.73932648 C98.27652491 467.44322478 80.99549689 477.37068667 63.17590714 478.54425812 C51.72491784 478.53126474 40.44474676 477.52451716 29.05725479 476.37995148 C5.44067727 474.01974425 -18.09461794 473.19913689 -41.81774521 472.75495148 C-44.02543241 472.71158068 -46.23311475 472.66796188 -48.44079208 472.6240921 C-53.75389088 472.51903723 -59.06704008 472.41697592 -64.38024521 472.31745148 C-64.44729156 472.98412338 -64.51433792 473.65079529 -64.58341599 474.33766937 C-68.36764768 511.77192593 -74.42760439 548.97224258 -79.99743271 586.17292023 C-80.12316666 587.0144313 -80.2489006 587.85594238 -80.37844467 588.7229538 C-81.00970365 592.9277023 -81.66638207 597.12571789 -82.38024521 601.31745148 C-81.57433945 601.2370462 -80.76843369 601.15664093 -79.93810654 601.07379913 C-61.52505106 599.26055872 -43.13857874 597.85174001 -24.65685654 596.96442413 C-16.26254155 596.60218246 -16.26254155 596.60218246 -7.89977646 595.82917023 C21.3907736 592.24652444 51.42826769 593.12252121 80.88278198 593.12942123 C83.65095292 593.12994555 86.41911959 593.12878604 89.18729019 593.12747955 C181.15325404 593.11164267 181.15325404 593.11164267 208.18225479 618.37995148 C227.1202501 638.13248422 233.04185192 662.38985876 232.76819229 688.99713898 C232.31197469 710.46928223 223.87041365 730.2508523 208.61975479 745.31745148 C207.93397354 746.02514679 207.24819229 746.7328421 206.54162979 747.46198273 C193.78966905 759.81249286 175.54757162 765.43455014 158.11194229 765.45026398 C157.42399582 765.4512207 156.73604935 765.45217743 156.02725601 765.45316315 C154.58022342 765.45383859 153.13318768 765.45202904 151.68616104 765.44782257 C149.5207235 765.44251513 147.35549809 765.44776363 145.19006729 765.45417023 C143.76819185 765.45350838 142.34631654 765.45222501 140.92444229 765.45026398 C139.66615616 765.44913605 138.40787003 765.44800812 137.11145401 765.44684601 C133.44513562 765.38728114 129.81341051 765.11045317 126.15857315 764.81964874 C117.99940201 764.2122949 109.86944994 764.15444344 101.69397354 764.14948273 C100.07490875 764.14552694 98.45584441 764.14138193 96.83678055 764.13706207 C92.54394127 764.12779877 88.25114149 764.12666429 83.95829391 764.12877274 C81.29733021 764.12995589 78.63637046 764.12941886 75.97540665 764.12876129 C54.2154079 764.12991599 32.48710297 764.30124699 10.74475479 765.25495148 C9.25254913 765.32016495 9.25254913 765.32016495 7.73019791 765.38669586 C4.96642097 765.51152883 2.20319353 765.64384867 -0.55993271 765.78229523 C-1.33446289 765.82089661 -2.10899307 765.85949799 -2.90699387 765.8992691 C-7.37920573 766.14457339 -11.80425745 766.57168338 -16.25271225 767.08904266 C-19.29626045 767.41579353 -22.338645 767.56982132 -25.39587021 767.71198273 C-45.91900421 768.74462492 -66.25294628 770.58090073 -86.65752792 772.99591827 C-89.57861749 773.34087781 -92.50015594 773.6818628 -95.42174911 774.0225296 C-100.80225513 774.65135014 -106.18155181 775.28980035 -111.56014633 775.93476105 C-113.64648302 776.18465037 -115.73300366 776.43300997 -117.81972885 776.67963409 C-128.79716204 777.98239579 -139.67931822 779.49060159 -150.55602646 781.47370148 C-158.47061596 782.90535119 -166.12315729 783.97700972 -174.19274521 783.81745148 C-175.74191635 783.80149933 -175.74191635 783.80149933 -177.32238388 783.78522491 C-186.70159452 783.55563079 -195.40376653 781.95413024 -204.38024521 779.31745148 C-205.43856552 779.02870148 -206.49688583 778.73995148 -207.58727646 778.44245148 C-228.26423106 772.2421331 -247.14045541 759.80822657 -258.03258896 740.89948273 C-260.15742043 736.82842881 -261.89832952 732.66215885 -263.38024521 728.31745148 C-263.73731552 727.30295929 -264.09438583 726.2884671 -264.46227646 725.24323273 C-269.67746218 706.34261057 -264.20876592 683.40578457 -261.39089584 664.37766266 C-260.2908926 656.88037621 -259.4067382 649.36437024 -258.55910873 641.83499908 C-257.24493488 630.16927601 -255.73098677 618.55656779 -253.94372177 606.95246124 C-252.46239249 597.19942909 -251.25802335 587.42161296 -250.06774521 577.62995148 C-248.07519115 561.26441175 -245.77235282 544.95604066 -243.35769272 528.64783478 C-241.37247598 515.2343229 -239.48907705 501.82093025 -237.79796982 488.36701202 C-235.11226155 467.10670996 -231.93246593 445.90936354 -228.76354599 424.7166214 C-227.57875317 416.75959159 -226.46631001 408.79446741 -225.41881943 400.8181839 C-224.84329744 396.48718794 -224.20056262 392.17710722 -223.46667099 387.86994171 C-222.32679324 381.07227207 -221.29979506 374.2599782 -220.28649521 367.44245148 C-219.99273799 365.4763531 -219.69897961 363.5102549 -219.40515518 361.54416656 C-218.89600267 358.13538811 -218.38815854 354.72641476 -217.88024521 351.31745148 C-217.27297961 347.24166529 -216.66546318 343.16591761 -216.05639267 339.0904007 C-215.67923764 336.56612605 -215.30296017 334.04172008 -214.92773056 331.51715851 C-212.15528748 312.96385874 -212.15528748 312.96385874 -210.34118271 304.16510773 C-209.36446026 299.38335642 -208.6583389 294.5901197 -208.00524521 289.75495148 C-206.6397518 279.94694796 -205.11081715 270.17081979 -203.5262413 260.39606476 C-202.57548215 254.52656385 -201.62858018 248.65644926 -200.68291855 242.78612518 C-197.84768558 225.18985908 -195.00631921 207.59459434 -192.13024521 190.00495148 C-192.01336475 189.29005177 -191.8964843 188.57515205 -191.77606201 187.83858871 C-187.71262128 163.0006697 -183.40406284 138.21585652 -178.86021042 113.46085358 C-177.74800394 107.38508235 -176.67460441 101.30367018 -175.63024521 95.21588898 C-175.49475769 94.43002914 -175.35927017 93.64416931 -175.21967697 92.83449554 C-174.60748785 89.28244928 -174.00077566 85.72969342 -173.40636826 82.17462921 C-171.39776543 70.5118483 -169.21202342 58.52544393 -163.56774521 48.00495148 C-163.22300156 47.34108429 -162.8782579 46.6772171 -162.52306747 45.99323273 C-159.57863419 40.44060275 -156.26345126 35.26540757 -152.38024521 30.31745148 C-151.86204208 29.63553741 -151.34383896 28.95362335 -150.80993271 28.25104523 C-139.06088479 13.74920106 -120.47087094 4.31928385 -102.04311562 2.02668953 C-95.77958265 1.46700067 -89.49970712 1.27992263 -83.21618271 1.08698273 C-81.11854915 1.01158276 -79.02092363 0.93595877 -76.92330551 0.86013031 C-51.29136223 -0.00932446 -25.64383789 -0.03480964 0 0 Z " fill="#FEFEFE" transform="translate(340.38024520874023,532.6825485229492)"/>
<path d="M0 0 C40.00843064 6.20538924 84.3678937 24.15346078 117 48 C117.60714844 48.43634766 118.21429687 48.87269531 118.83984375 49.32226562 C128.12604696 56.01086619 136.76925703 63.04476307 145 71 C145.93457031 71.88300781 146.86914062 72.76601563 147.83203125 73.67578125 C170.56663146 95.64726201 188.25968542 127.11327917 189.23828125 159.21875 C189.95700537 205.72084214 174.07219867 248.27775389 143 283 C142.2059375 283.91523437 141.411875 284.83046875 140.59375 285.7734375 C136.03795881 290.9689117 131.32826999 295.61052044 126 300 C124.84625907 300.97775239 123.69262311 301.95562864 122.5390625 302.93359375 C87.40316029 332.42210173 44.41350798 348.94554463 1.65234375 364.05712891 C-0.75781769 364.91390758 -3.16149645 365.78591247 -5.5625 366.66796875 C-6.22072754 366.90854004 -6.87895508 367.14911133 -7.55712891 367.39697266 C-9.2133742 368.00332837 -10.86846944 368.61282311 -12.5234375 369.22265625 C-15 370 -15 370 -18 370 C-18.06376344 360.90335044 -17.90493421 351.849171 -17.48217773 342.76269531 C-17.42640375 341.51267982 -17.37062977 340.26266434 -17.31316566 338.97476959 C-17.15980435 335.55984372 -17.0034608 332.14508259 -16.84540868 328.73037243 C-16.74469675 326.54785061 -16.64516088 324.36527812 -16.54598808 322.18268585 C-14.95771601 287.24299208 -13.20887053 252.31116257 -11.44703043 217.37986708 C-11.0215903 208.94331921 -10.59842573 200.50665765 -10.1753633 192.06999028 C-9.37687706 176.14815027 -8.57522197 160.22647169 -7.77166557 144.30488682 C-7.28784767 134.71708327 -6.80541212 125.12921168 -6.32451707 115.54126108 C-5.96542199 108.3823067 -5.60547157 101.22339564 -5.24493331 94.0645138 C-5.03232576 89.84226681 -4.8200954 85.6200018 -4.6089344 81.39768219 C-3.25098793 54.25371049 -1.72288707 27.12356202 0 0 Z " fill="#000000" transform="translate(882,731)"/>
</svg>
